<svg viewBox="-5000 -5000 10000 10000" width="10000" height="10000" xmlns="http://www.w3.org/2000/svg" xmlns:xlink="http://www.w3.org/1999/xlink" preserveAspectRatio="none" style="position: absolute; top: -5000px; left: -5000px;"><g><g opacity="1" transform="rotate(0 113.5763 516.8491)"><svg x="113.5763" y="516.8491" width="447.8475" height="31.4799" viewBox="4.2 -30.28 434.20000000000005 30.520000000000003" preserveAspectRatio="none"><g transform="matrix(1 0 0 1 0 0)" class="text1309c7bd-6574-4179-9017-dee320062c4f"><path id="id-1309c7bd-6574-4179-9017-dee320062c4f6izo4zJp18" d="M4.20 0L4.20-28L8.20-28L8.20-3.48L23.36-3.48L23.36 0L4.20 0Z M50.28-10.48Q50.28-10.04 50.20-9.32L50.20-9.32L33-9.32Q33.36-6.52 35.46-4.82Q37.56-3.12 40.68-3.12L40.68-3.12Q44.48-3.12 46.80-5.68L46.80-5.68L48.92-3.20Q47.48-1.52 45.34-0.64Q43.20 0.24 40.56 0.24L40.56 0.24Q37.20 0.24 34.60-1.14Q32-2.52 30.58-5Q29.16-7.48 29.16-10.60L29.16-10.60Q29.16-13.68 30.54-16.16Q31.92-18.64 34.34-20.02Q36.76-21.40 39.80-21.40L39.80-21.40Q42.84-21.40 45.22-20.02Q47.60-18.64 48.94-16.16Q50.28-13.68 50.28-10.48L50.28-10.48ZM39.80-18.16Q37.04-18.16 35.18-16.48Q33.32-14.80 33-12.08L33-12.08L46.60-12.08Q46.28-14.76 44.42-16.46Q42.56-18.16 39.80-18.16L39.80-18.16Z M80.44 0.24Q77.84 0.24 75.44-0.46Q73.04-1.16 71.68-2.24L71.68-2.24L73.28-5.28Q74.68-4.28 76.68-3.68Q78.68-3.08 80.72-3.08L80.72-3.08Q85.76-3.08 85.76-5.96L85.76-5.96Q85.76-6.92 85.08-7.48Q84.40-8.04 83.38-8.30Q82.36-8.56 80.48-8.88L80.48-8.88Q77.92-9.28 76.30-9.80Q74.68-10.32 73.52-11.56Q72.36-12.80 72.36-15.04L72.36-15.04Q72.36-17.92 74.76-19.66Q77.16-21.40 81.20-21.40L81.20-21.40Q83.32-21.40 85.44-20.88Q87.56-20.36 88.92-19.48L88.92-19.48L87.28-16.44Q84.68-18.12 81.16-18.12L81.16-18.12Q78.72-18.12 77.44-17.32Q76.16-16.52 76.16-15.20L76.16-15.20Q76.16-14.16 76.88-13.56Q77.60-12.96 78.66-12.68Q79.72-12.40 81.64-12.04L81.64-12.04Q84.20-11.60 85.78-11.10Q87.36-10.60 88.48-9.40Q89.60-8.20 89.60-6.04L89.60-6.04Q89.60-3.16 87.14-1.46Q84.68 0.24 80.44 0.24L80.44 0.24Z M98.40 0L98.40-21.20L102.24-21.20L102.24 0L98.40 0ZM100.32-25.28Q99.20-25.28 98.46-26Q97.72-26.72 97.72-27.76L97.72-27.76Q97.72-28.80 98.46-29.54Q99.20-30.28 100.32-30.28L100.32-30.28Q101.44-30.28 102.18-29.58Q102.92-28.88 102.92-27.84L102.92-27.84Q102.92-26.76 102.18-26.02Q101.44-25.28 100.32-25.28L100.32-25.28Z M124.28-4L125.48-1.24Q124.64-0.52 123.40-0.14Q122.16 0.24 120.84 0.24L120.84 0.24Q117.64 0.24 115.88-1.48Q114.12-3.20 114.12-6.40L114.12-6.40L114.12-18.04L110.52-18.04L110.52-21.20L114.12-21.20L114.12-25.84L117.96-25.84L117.96-21.20L124.04-21.20L124.04-18.04L117.96-18.04L117.96-6.56Q117.96-4.84 118.82-3.92Q119.68-3 121.28-3L121.28-3Q123.04-3 124.28-4L124.28-4Z M152.56-10.48Q152.56-10.04 152.48-9.32L152.48-9.32L135.28-9.32Q135.64-6.52 137.74-4.82Q139.84-3.12 142.96-3.12L142.96-3.12Q146.76-3.12 149.08-5.68L149.08-5.68L151.20-3.20Q149.76-1.52 147.62-0.64Q145.48 0.24 142.84 0.24L142.84 0.24Q139.48 0.24 136.88-1.14Q134.28-2.52 132.86-5Q131.44-7.48 131.44-10.60L131.44-10.60Q131.44-13.68 132.82-16.16Q134.20-18.64 136.62-20.02Q139.04-21.40 142.08-21.40L142.08-21.40Q145.12-21.40 147.50-20.02Q149.88-18.64 151.22-16.16Q152.56-13.68 152.56-10.48L152.56-10.48ZM142.08-18.16Q139.32-18.16 137.46-16.48Q135.60-14.80 135.28-12.08L135.28-12.08L148.88-12.08Q148.56-14.76 146.70-16.46Q144.84-18.16 142.08-18.16L142.08-18.16Z M192.80-29.68L196.64-29.68L196.64 0L192.96 0L192.96-3.36Q191.68-1.60 189.72-0.68Q187.76 0.24 185.40 0.24L185.40 0.24Q182.32 0.24 179.88-1.12Q177.44-2.48 176.06-4.94Q174.68-7.40 174.68-10.60L174.68-10.60Q174.68-13.80 176.06-16.24Q177.44-18.68 179.88-20.04Q182.32-21.40 185.40-21.40L185.40-21.40Q187.68-21.40 189.60-20.54Q191.52-19.68 192.80-18L192.80-18L192.80-29.68ZM185.72-3.12Q187.72-3.12 189.36-4.06Q191.00-5 191.92-6.70Q192.84-8.40 192.84-10.60L192.84-10.60Q192.84-12.80 191.92-14.50Q191.00-16.20 189.36-17.12Q187.72-18.04 185.72-18.04L185.72-18.04Q183.68-18.04 182.06-17.12Q180.44-16.20 179.50-14.50Q178.56-12.80 178.56-10.60L178.56-10.60Q178.56-8.40 179.50-6.70Q180.44-5 182.06-4.06Q183.68-3.12 185.72-3.12L185.72-3.12Z M227.08-10.48Q227.08-10.04 227.00-9.32L227.00-9.32L209.80-9.32Q210.16-6.52 212.26-4.82Q214.36-3.12 217.48-3.12L217.48-3.12Q221.28-3.12 223.60-5.68L223.60-5.68L225.72-3.20Q224.28-1.52 222.14-0.64Q220.00 0.24 217.36 0.24L217.36 0.24Q214.00 0.24 211.40-1.14Q208.80-2.52 207.38-5Q205.96-7.48 205.96-10.60L205.96-10.60Q205.96-13.68 207.34-16.16Q208.72-18.64 211.14-20.02Q213.56-21.40 216.60-21.40L216.60-21.40Q219.64-21.40 222.02-20.02Q224.40-18.64 225.74-16.16Q227.08-13.68 227.08-10.48L227.08-10.48ZM216.60-18.16Q213.84-18.16 211.98-16.48Q210.12-14.80 209.80-12.08L209.80-12.08L223.40-12.08Q223.08-14.76 221.22-16.46Q219.36-18.16 216.60-18.16L216.60-18.16Z M242.48 0.24Q239.88 0.24 237.48-0.46Q235.08-1.16 233.72-2.24L233.72-2.24L235.32-5.28Q236.72-4.28 238.72-3.68Q240.72-3.08 242.76-3.08L242.76-3.08Q247.80-3.08 247.80-5.96L247.80-5.96Q247.80-6.92 247.12-7.48Q246.44-8.04 245.42-8.30Q244.40-8.56 242.52-8.88L242.52-8.88Q239.96-9.28 238.34-9.80Q236.72-10.32 235.56-11.56Q234.40-12.80 234.40-15.04L234.40-15.04Q234.40-17.92 236.80-19.66Q239.20-21.40 243.24-21.40L243.24-21.40Q245.36-21.40 247.48-20.88Q249.60-20.36 250.96-19.48L250.96-19.48L249.32-16.44Q246.72-18.12 243.20-18.12L243.20-18.12Q240.76-18.12 239.48-17.32Q238.20-16.52 238.20-15.20L238.20-15.20Q238.20-14.16 238.92-13.56Q239.64-12.96 240.70-12.68Q241.76-12.40 243.68-12.04L243.68-12.04Q246.24-11.60 247.82-11.10Q249.40-10.60 250.52-9.40Q251.64-8.20 251.64-6.04L251.64-6.04Q251.64-3.16 249.18-1.46Q246.72 0.24 242.48 0.24L242.48 0.24Z M290.20-21.20L293.96-21.20L284.68 0L280.76 0L271.48-21.20L275.48-21.20L282.76-4.20L290.20-21.20Z M320.12-10.48Q320.12-10.04 320.04-9.32L320.04-9.32L302.84-9.32Q303.20-6.52 305.30-4.82Q307.40-3.12 310.52-3.12L310.52-3.12Q314.32-3.12 316.64-5.68L316.64-5.68L318.76-3.20Q317.32-1.52 315.18-0.64Q313.04 0.24 310.40 0.24L310.40 0.24Q307.04 0.24 304.44-1.14Q301.84-2.52 300.42-5Q299.00-7.48 299.00-10.60L299.00-10.60Q299.00-13.68 300.38-16.16Q301.76-18.64 304.18-20.02Q306.60-21.40 309.64-21.40L309.64-21.40Q312.68-21.40 315.06-20.02Q317.44-18.64 318.78-16.16Q320.12-13.68 320.12-10.48L320.12-10.48ZM309.64-18.16Q306.88-18.16 305.02-16.48Q303.16-14.80 302.84-12.08L302.84-12.08L316.44-12.08Q316.12-14.76 314.26-16.46Q312.40-18.16 309.64-18.16L309.64-18.16Z M340.76-21.40Q344.80-21.40 347.18-19.06Q349.56-16.72 349.56-12.20L349.56-12.20L349.56 0L345.72 0L345.72-11.76Q345.72-14.84 344.24-16.40Q342.76-17.96 340.00-17.96L340.00-17.96Q336.88-17.96 335.08-16.14Q333.28-14.32 333.28-10.92L333.28-10.92L333.28 0L329.44 0L329.44-21.20L333.12-21.20L333.12-18Q334.28-19.64 336.26-20.52Q338.24-21.40 340.76-21.40L340.76-21.40Z M376.96-29.68L380.80-29.68L380.80 0L377.12 0L377.12-3.36Q375.84-1.60 373.88-0.68Q371.92 0.24 369.56 0.24L369.56 0.24Q366.48 0.24 364.04-1.12Q361.60-2.48 360.22-4.94Q358.84-7.40 358.84-10.60L358.84-10.60Q358.84-13.80 360.22-16.24Q361.60-18.68 364.04-20.04Q366.48-21.40 369.56-21.40L369.56-21.40Q371.84-21.40 373.76-20.54Q375.68-19.68 376.96-18L376.96-18L376.96-29.68ZM369.88-3.12Q371.88-3.12 373.52-4.06Q375.16-5 376.08-6.70Q377.00-8.40 377.00-10.60L377.00-10.60Q377.00-12.80 376.08-14.50Q375.16-16.20 373.52-17.12Q371.88-18.04 369.88-18.04L369.88-18.04Q367.84-18.04 366.22-17.12Q364.60-16.20 363.66-14.50Q362.72-12.80 362.72-10.60L362.72-10.60Q362.72-8.40 363.66-6.70Q364.60-5 366.22-4.06Q367.84-3.12 369.88-3.12L369.88-3.12Z M408.00-21.20L411.84-21.20L411.84 0L408.20 0L408.20-3.20Q407.04-1.56 405.14-0.66Q403.24 0.24 401.00 0.24L401.00 0.24Q396.76 0.24 394.32-2.10Q391.88-4.44 391.88-9L391.88-9L391.88-21.20L395.72-21.20L395.72-9.44Q395.72-6.36 397.20-4.78Q398.68-3.20 401.44-3.20L401.44-3.20Q404.48-3.20 406.24-5.04Q408.00-6.88 408.00-10.24L408.00-10.24L408.00-21.20Z M429.24 0.24Q426.64 0.24 424.24-0.46Q421.84-1.16 420.48-2.24L420.48-2.24L422.08-5.28Q423.48-4.28 425.48-3.68Q427.48-3.08 429.52-3.08L429.52-3.08Q434.56-3.08 434.56-5.96L434.56-5.96Q434.56-6.92 433.88-7.48Q433.20-8.04 432.18-8.30Q431.16-8.56 429.28-8.88L429.28-8.88Q426.72-9.28 425.10-9.80Q423.48-10.32 422.32-11.56Q421.16-12.80 421.16-15.04L421.16-15.04Q421.16-17.92 423.56-19.66Q425.96-21.40 430.00-21.40L430.00-21.40Q432.12-21.40 434.24-20.88Q436.36-20.36 437.72-19.48L437.72-19.48L436.08-16.44Q433.48-18.12 429.96-18.12L429.96-18.12Q427.52-18.12 426.24-17.32Q424.96-16.52 424.96-15.20L424.96-15.20Q424.96-14.16 425.68-13.56Q426.40-12.96 427.46-12.68Q428.52-12.40 430.44-12.04L430.44-12.04Q433.00-11.60 434.58-11.10Q436.16-10.60 437.28-9.40Q438.40-8.20 438.40-6.04L438.40-6.04Q438.40-3.16 435.94-1.46Q433.48 0.24 429.24 0.24L429.24 0.24Z"></path></g></svg></g></g></svg>