<svg viewBox="-5000 -5000 10000 10000" width="10000" height="10000" xmlns="http://www.w3.org/2000/svg" xmlns:xlink="http://www.w3.org/1999/xlink" preserveAspectRatio="none" style="position: absolute; top: -5000px; left: -5000px;"><g><g opacity="1" transform="rotate(0 67.5 403.5213)"><svg x="67.5" y="403.5213" width="540" height="78.6999" viewBox="0.6 -31.24 216.00000000000003 31.48" preserveAspectRatio="none"><g transform="matrix(1 0 0 1 0 0)" class="companyName1309c7bd-6574-4179-9017-dee320062c4f"><path id="id-1309c7bd-6574-4179-9017-dee320062c4fD6z1nYkh9" d="M24.32-31.24Q24.80-31.24 25.10-30.94Q25.40-30.64 25.40-30.16L25.40-30.16Q25.40-29.68 25.10-29.38Q24.80-29.08 24.32-29.08L24.32-29.08L14.20-29.08L14.20-1.20Q14.20-0.68 13.86-0.34Q13.52 0 13 0L13 0Q12.48 0 12.14-0.34Q11.80-0.68 11.80-1.20L11.80-1.20L11.80-29.08L1.68-29.08Q1.20-29.08 0.90-29.38Q0.60-29.68 0.60-30.16L0.60-30.16Q0.60-30.64 0.90-30.94Q1.20-31.24 1.68-31.24L1.68-31.24L24.32-31.24Z M35.28-22.12Q38.32-22.12 38.32-20.80L38.32-20.80Q38.32-20.60 38.28-20.48L38.28-20.48Q38.16-20.04 37.90-19.86Q37.64-19.68 37.20-19.68L37.20-19.68Q36.84-19.68 36.26-19.76Q35.68-19.84 35.28-19.84L35.28-19.84Q33.28-19.84 31.72-19Q30.16-18.16 29.28-16.68Q28.40-15.20 28.40-13.36L28.40-13.36L28.40-1.20Q28.40-0.68 28.08-0.34Q27.76 0 27.20 0L27.20 0Q26.68 0 26.34-0.34Q26-0.68 26-1.20L26-1.20L26-20.68Q26-21.24 26.34-21.56Q26.68-21.88 27.20-21.88L27.20-21.88Q27.76-21.88 28.08-21.56Q28.40-21.24 28.40-20.68L28.40-20.68L28.40-18.20Q29.56-20.04 31.36-21.08Q33.16-22.12 35.28-22.12L35.28-22.12Z M53.92-22.12Q57.04-22.12 59.60-20.66Q62.16-19.20 63.62-16.64Q65.08-14.08 65.08-10.92L65.08-10.92Q65.08-7.80 63.62-5.24Q62.16-2.68 59.60-1.22Q57.04 0.24 53.92 0.24L53.92 0.24Q50.76 0.24 48.20-1.22Q45.64-2.68 44.18-5.24Q42.72-7.80 42.72-10.92L42.72-10.92Q42.72-14.08 44.18-16.64Q45.64-19.20 48.20-20.66Q50.76-22.12 53.92-22.12L53.92-22.12ZM53.92-19.88Q51.44-19.88 49.44-18.70Q47.44-17.52 46.28-15.48Q45.12-13.44 45.12-10.92L45.12-10.92Q45.12-8.40 46.28-6.36Q47.44-4.32 49.44-3.16Q51.44-2 53.92-2L53.92-2Q56.40-2 58.40-3.16Q60.40-4.32 61.54-6.36Q62.68-8.40 62.68-10.92L62.68-10.92Q62.68-13.44 61.54-15.48Q60.40-17.52 58.40-18.70Q56.40-19.88 53.92-19.88L53.92-19.88Z M82.16-22.08Q84.72-22.08 86.84-21.08Q88.96-20.08 90.52-18.12L90.52-18.12Q90.80-17.72 90.80-17.44L90.80-17.44Q90.80-16.88 90.24-16.56L90.24-16.56Q89.96-16.32 89.60-16.32L89.60-16.32Q89.04-16.32 88.68-16.80L88.68-16.80Q86.12-19.84 82.16-19.84L82.16-19.84Q79.84-19.84 78.04-18.70Q76.24-17.56 75.26-15.52Q74.28-13.48 74.28-10.92L74.28-10.92Q74.28-8.40 75.36-6.36Q76.44-4.32 78.36-3.16Q80.28-2 82.76-2L82.76-2Q86.28-2 88.40-3.96L88.40-3.96Q88.76-4.32 89.24-4.32L89.24-4.32Q89.68-4.32 89.96-4.04L89.96-4.04Q90.36-3.68 90.36-3.16L90.36-3.16Q90.36-2.72 90.04-2.44L90.04-2.44Q88.64-1.16 86.76-0.46Q84.88 0.24 82.76 0.24L82.76 0.24Q79.68 0.24 77.20-1.22Q74.72-2.68 73.30-5.24Q71.88-7.80 71.88-10.92L71.88-10.92Q71.88-14.08 73.20-16.62Q74.52-19.16 76.88-20.62Q79.24-22.08 82.16-22.08L82.16-22.08Z M111.92-29.08Q111.36-29.08 111.04-29.34Q110.72-29.60 110.72-30.16L110.72-30.16Q110.72-30.60 111.06-30.92Q111.40-31.24 111.92-31.24L111.92-31.24L134.36-31.24Q134.88-31.24 135.22-30.86Q135.56-30.48 135.56-30L135.56-30Q135.56-29.64 135.36-29.36L135.36-29.36L113.80-2.16L134.36-2.16Q134.88-2.16 135.22-1.88Q135.56-1.60 135.56-1.08L135.56-1.08Q135.56-0.64 135.20-0.32Q134.84 0 134.36 0L134.36 0L111.92 0Q111.40 0 111.06-0.36Q110.72-0.72 110.72-1.20L110.72-1.20Q110.72-1.64 111-1.96L111-1.96L132.40-29.08L111.92-29.08Z M149.36-22.12Q152.48-22.12 155.04-20.66Q157.60-19.20 159.06-16.64Q160.52-14.08 160.52-10.92L160.52-10.92Q160.52-7.80 159.06-5.24Q157.60-2.68 155.04-1.22Q152.48 0.24 149.36 0.24L149.36 0.24Q146.20 0.24 143.64-1.22Q141.08-2.68 139.62-5.24Q138.16-7.80 138.16-10.92L138.16-10.92Q138.16-14.08 139.62-16.64Q141.08-19.20 143.64-20.66Q146.20-22.12 149.36-22.12L149.36-22.12ZM149.36-19.88Q146.88-19.88 144.88-18.70Q142.88-17.52 141.72-15.48Q140.56-13.44 140.56-10.92L140.56-10.92Q140.56-8.40 141.72-6.36Q142.88-4.32 144.88-3.16Q146.88-2 149.36-2L149.36-2Q151.84-2 153.84-3.16Q155.84-4.32 156.98-6.36Q158.12-8.40 158.12-10.92L158.12-10.92Q158.12-13.44 156.98-15.48Q155.84-17.52 153.84-18.70Q151.84-19.88 149.36-19.88L149.36-19.88Z M178.52-22.16Q181.44-22.16 183.74-20.96Q186.04-19.76 187.34-17.46Q188.64-15.16 188.64-11.96L188.64-11.96L188.64-1.20Q188.64-0.68 188.30-0.34Q187.96 0 187.44 0L187.44 0Q186.92 0 186.58-0.34Q186.24-0.68 186.24-1.20L186.24-1.20L186.24-11.96Q186.24-15.76 184.10-17.76Q181.96-19.76 178.52-19.76L178.52-19.76Q176.40-19.76 174.66-18.94Q172.92-18.12 171.92-16.66Q170.92-15.20 170.92-13.44L170.92-13.44L170.92-1.20Q170.92-0.68 170.60-0.34Q170.28 0 169.72 0L169.72 0Q169.20 0 168.86-0.34Q168.52-0.68 168.52-1.20L168.52-1.20L168.52-20.68Q168.52-21.24 168.86-21.56Q169.20-21.88 169.72-21.88L169.72-21.88Q170.28-21.88 170.60-21.56Q170.92-21.24 170.92-20.68L170.92-20.68L170.92-18.60Q172.28-20.28 174.24-21.22Q176.20-22.16 178.52-22.16L178.52-22.16Z M206.52-22.08Q209.44-22.08 211.74-20.70Q214.04-19.32 215.32-16.88Q216.60-14.44 216.60-11.32L216.60-11.32Q216.60-10.80 216.28-10.50Q215.96-10.20 215.44-10.20L215.44-10.20L198.68-10.20Q198.80-7.84 199.92-5.98Q201.04-4.12 202.92-3.08Q204.80-2.04 207.12-2.04L207.12-2.04Q208.68-2.04 210.26-2.58Q211.84-3.12 212.76-4L212.76-4Q213.16-4.32 213.60-4.32L213.60-4.32Q214.04-4.32 214.32-4.08L214.32-4.08Q214.76-3.72 214.76-3.24L214.76-3.24Q214.76-2.84 214.40-2.48L214.40-2.48Q213.12-1.32 211.06-0.56Q209.00 0.20 207.12 0.20L207.12 0.20Q203.96 0.20 201.50-1.22Q199.04-2.64 197.64-5.18Q196.24-7.72 196.24-10.92L196.24-10.92Q196.24-14.16 197.54-16.70Q198.84-19.24 201.18-20.66Q203.52-22.08 206.52-22.08L206.52-22.08ZM206.52-19.84Q203.40-19.84 201.26-17.76Q199.12-15.68 198.72-12.28L198.72-12.28L214.28-12.28Q214.00-15.68 211.88-17.76Q209.76-19.84 206.52-19.84L206.52-19.84Z"></path></g></svg></g></g></svg>