<svg viewBox="-5000 -5000 10000 10000" width="10000" height="10000" xmlns="http://www.w3.org/2000/svg" xmlns:xlink="http://www.w3.org/1999/xlink" preserveAspectRatio="none" style="position: absolute; top: -5000px; left: -5000px;"><g><g opacity="1" transform="rotate(0 261.9001 127.671)"><svg x="261.9001" y="127.671" width="151.1999" height="213.8905" viewBox="29.96435546875 21.099246978759766 40.857421875 57.797725677490234" preserveAspectRatio="none"><g transform="matrix(1 0 0 1 0 0)" class="aLgOaV3zRcolors-01309c7bd-6574-4179-9017-dee320062c4f"><g><path d="M70.8217773,71.3261719V33.4589844c0-0.0933838-0.0333252-0.178772-0.0809326-0.2564697   c-0.0129395-0.0211792-0.0281372-0.0361328-0.0441284-0.0552368c-0.0217896-0.0263062-0.0361938-0.0578003-0.0634155-0.0794067   c-0.0357056-0.0286865-0.0795898-0.0403442-0.1210327-0.0576172c-0.0143433-0.0061646-0.0211182-0.0219727-0.0361938-0.0268555   l-4.1029053-1.3307495c-0.1311646-2.7957153-1.1959839-5.1655884-3.0548096-6.7073364   c-1.9980469-1.6582031-4.6455078-2.1625977-7.4555664-1.4189453c-0.4564209,0.1207275-0.90271,0.2825928-1.3436279,0.4624023   c-0.3501587-0.4818726-0.7542114-0.9169922-1.2115479-1.2963867c-1.8149414-1.5063477-4.2182617-1.9643555-6.7661133-1.2890625   c-5.1347656,1.3579102-9.3125,7.0200195-9.3125,12.621582v1.4385986l-6.8769531,1.586792   c-0.2270508,0.0522461-0.3876953,0.2543945-0.3876953,0.4873047v0.081543v37.7885742   c0,0.095459,0.0351563,0.182373,0.0848999,0.2612305c0.0142822,0.0228271,0.0302124,0.0396118,0.0479736,0.0598145   c0.0198364,0.0227661,0.0319824,0.0510254,0.0560913,0.0700684c0.0223999,0.0178833,0.0533447,0.0137329,0.0780029,0.0272827   c0.0288696,0.0163574,0.0463257,0.0466309,0.0787354,0.0571899l9.2143555,2.9892578   c0.050293,0.0166016,0.1025391,0.0244141,0.1542969,0.0244141c0.0375977,0,0.0751953-0.0043945,0.1123047-0.0126953   l30.6430664-7.0708008C70.6611328,71.7612305,70.8217773,71.559082,70.8217773,71.3261719z M56.1186523,24.4931641   c2.4873047-0.6586914,4.8188477-0.2241211,6.5610352,1.2216797c1.5568848,1.2911987,2.4887695,3.2615356,2.6793823,5.6088867   l-4.100769-1.3300781c-0.0063477-0.0021362-0.0130005,0.0003052-0.0194092-0.0015259   c-0.0476074-0.0133057-0.0955811-0.0125122-0.1452637-0.0115967c-0.0274658,0.0006104-0.0540771-0.005249-0.0809937-0.000061   c-0.0068359,0.0012207-0.0136719-0.0015259-0.0204468,0l-4.8886719,1.1279907v-1.8101196   c0-1.670166-0.3683472-3.1833496-1.0529785-4.4529419C55.4016724,24.7094727,55.7572021,24.5887451,56.1186523,24.4931641z    M60.6040039,31.0963135v4.0916748L46.574707,38.4249878v-0.9523315c0-1.0880127,0.1533203-2.1777954,0.4360962-3.2397461   L60.6040039,31.0963135z M54.1365967,25.2472534c0.6312866,1.1387329,0.9669189,2.5193481,0.9669189,4.0510864v2.0408936   l-7.7454224,1.7871094C48.5706177,29.7376709,51.0857544,26.7631226,54.1365967,25.2472534z M38.2290039,34.0249023   c0-5.1772461,3.84375-10.4052734,8.5683594-11.6547852c2.2280273-0.5898438,4.3125-0.2016602,5.871582,1.0917969   c0.3396606,0.2817993,0.6395264,0.6060181,0.9115601,0.9560547c-3.3944092,1.7410889-6.1479492,5.1465454-7.3481445,8.9681396   l-8.0033569,1.8466797V34.0249023z M39.5664063,40.0419922c-0.0015869,0.0003662-0.0028076,0.0014648-0.0043945,0.0018311   L32.18927,37.6528931l13.7453003-3.1716919c-0.2271729,0.9859009-0.3598633,1.9885864-0.3598633,2.9914551v1.1830444   L39.5664063,40.0419922z M69.8217773,70.9282227l-29.6430054,6.840332l0.0033569-36.8421021l5.3925781-1.2442627v4.6363525   c-0.687439,0.3453979-1.1898193,1.0751953-1.1898193,1.8331909c0,0.9332275,0.7565308,1.5454102,1.6898193,1.3673096   c0.9332886-0.1781616,1.6898804-1.0791626,1.6898804-2.0123901c0-0.7579956-0.5024414-1.2959595-1.1898804-1.3789063V39.451416   l14.6397705-3.3779907c0.0006104-0.0001221,0.0012207-0.000061,0.0018311-0.0001831l4.1831055-0.96521v3.7578735   c-0.6262817,0.3295898-1.0804443,1.0012207-1.0804443,1.6981812c0,0.8728638,0.7075806,1.4453735,1.5804443,1.2787476   c0.8728027-0.1665649,1.5803833-1.0092163,1.5803833-1.882019c0-0.6970215-0.4541626-1.1951904-1.0803833-1.2857666v-3.7977905   l3.4223633-0.7896729V70.9282227z"></path></g></g></svg></g></g></svg>